<svg width="105" height="109" viewBox="0 0 105 109" fill="none" xmlns="http://www.w3.org/2000/svg">
<path d="M0.660724 82.9213C0.660724 82.9174 0.660724 82.9174 0.660724 82.9135C0.730754 82.365 0.789108 81.8164 0.8747 81.2717C1.25987 78.7935 2.85111 77.4746 5.15432 76.8871C6.7689 76.4747 8.30567 76.8365 9.79965 77.4746C11.6554 78.2682 13.1844 79.5249 14.6784 80.8438C19.0397 84.6915 23.8134 87.9129 29.1474 90.2667C33.3453 92.1225 37.7222 93.3324 42.2664 93.9627C46.048 94.4879 49.8491 94.6669 53.6618 94.5735C66.5785 94.2506 78.1723 90.1928 88.3539 82.1977C89.7623 81.0928 91.1007 79.9023 92.5207 78.8168C94.1198 77.5913 95.8744 76.7198 97.9131 76.6614C101.994 76.5369 105.006 80.0151 104.624 84.0807C104.449 85.9443 103.632 87.5161 102.278 88.9011C95.6332 95.6823 87.7159 100.46 78.8727 103.782C73.3286 105.868 67.6367 107.338 61.7542 108.116C57.0388 108.743 52.2962 108.957 47.5692 108.688C37.4032 108.109 27.6729 105.751 18.6118 100.977C13.0055 98.0244 7.86992 94.4179 3.4697 89.8154C1.89402 88.1697 0.82802 86.31 0.711303 83.9873C0.707413 83.9173 0.676283 83.8512 0.65683 83.7811V82.9213H0.660724Z" fill="#EF8119"/>
<path d="M0.660736 8.28478V8.28089C0.742438 7.66229 0.785216 7.03592 0.909714 6.42899C1.62558 2.94307 4.23227 0.63208 7.80769 0.332508C9.95917 0.153543 12.0134 0.457007 13.8731 1.67086C15.7872 2.91972 16.7793 4.72104 17.1139 6.93476C17.2228 7.64673 17.2384 8.3587 17.2384 9.07456C17.2384 26.4497 17.2345 43.8249 17.2423 61.2C17.2423 62.7368 17.1061 64.2502 16.4447 65.6508C15.1803 68.3353 12.951 69.6697 10.0837 70.051C8.64415 70.2417 7.22021 70.1133 5.85073 69.6269C2.80831 68.5454 0.898049 65.9193 0.746317 62.6707C0.734645 62.4411 0.691841 62.2155 0.664607 61.9859C0.664607 61.982 0.664607 61.982 0.664607 61.9781V8.28478H0.660736Z" fill="white"/>
<path d="M44.9042 56.5201C45.1804 56.6718 45.4177 56.6135 45.6434 56.6135C55.5215 56.6174 65.3997 56.6135 75.2778 56.6174C76.4255 56.6174 77.5654 56.7107 78.6742 57.0298C80.744 57.6328 82.1291 58.9283 82.666 61.0487C83.0472 62.5465 83.0823 64.0639 82.6737 65.5617C81.9734 68.1256 80.1916 69.4834 77.6471 69.9425C76.8379 70.0864 76.0131 70.1331 75.1883 70.1331C60.6921 70.1331 46.1997 70.1331 31.7035 70.1292C27.7818 70.1292 24.7977 67.6782 24.1052 63.8226C23.6111 61.0642 24.4243 58.5938 26.105 56.4306C28.7428 53.0419 31.4467 49.7117 34.1273 46.358C39.185 40.0281 44.2467 33.7021 49.3083 27.3722C52.7942 23.0109 56.2763 18.6535 59.7583 14.2883C59.8634 14.1599 60.1007 14.0432 59.984 13.8525C59.8867 13.6969 59.6533 13.7825 59.4782 13.7825C49.8141 13.7786 40.1499 13.7825 30.4897 13.7786C29.2252 13.7786 27.9958 13.5724 26.8325 13.0589C25.2024 12.3352 24.1869 11.0864 23.7356 9.37451C23.3544 7.93112 23.3349 6.47217 23.6656 5.01711C24.2492 2.42601 25.9649 1.0332 28.4977 0.531316C29.2719 0.379585 30.0539 0.305664 30.8437 0.305664C45.017 0.309555 59.1903 0.305662 73.3636 0.309552C75.2467 0.309552 76.9741 0.768638 78.4136 2.05641C79.8686 3.35585 80.674 4.98599 80.8996 6.90791C81.2654 9.98144 80.1916 12.5687 78.2774 14.9263C73.8927 20.3303 69.5587 25.7731 65.2051 31.1966C60.9839 36.4566 56.7626 41.7166 52.5413 46.9727C50.1097 49.9995 47.6743 53.0186 45.2427 56.0454C45.1298 56.1855 45.0365 56.3372 44.9042 56.5201Z" fill="white"/>
<path d="M104.636 35.114C104.636 44.0428 104.648 52.9716 104.628 61.9004C104.624 64.1686 103.986 66.2617 102.235 67.923C101.376 68.74 100.314 69.3275 99.1814 69.6893C97.2556 70.304 95.3025 70.2923 93.3494 69.6543C90.2992 68.6583 88.3578 66.04 88.1516 62.7719C88.0972 61.8965 88.0738 61.0212 88.0738 60.1458C88.0777 43.1286 88.0738 26.1113 88.0777 9.0941C88.0777 7.70518 88.2256 6.32403 88.7041 4.97791C89.346 3.18048 90.7817 1.77988 92.548 1.06013C95.7888 -0.26654 98.9324 -0.0292215 101.839 2.09501C103.554 3.35166 104.286 5.1841 104.562 7.24998C104.616 7.66238 104.632 8.08256 104.632 8.50274C104.632 17.3693 104.636 26.2397 104.636 35.114Z" fill="white"/>
</svg>
